<svg width="85" height="14" viewBox="0 0 85 14" fill="none" xmlns="http://www.w3.org/2000/svg">
<path d="M9.49291 13L6.61291 8.95C6.28891 8.986 5.95291 9.004 5.60491 9.004H2.22091V13H0.888914V0.399999H5.60491C7.21291 0.399999 8.47291 0.783999 9.38491 1.552C10.2969 2.32 10.7529 3.376 10.7529 4.72C10.7529 5.704 10.5009 6.538 9.99691 7.222C9.50491 7.894 8.79691 8.38 7.87291 8.68L10.9509 13H9.49291ZM5.56891 7.87C6.81691 7.87 7.77091 7.594 8.43091 7.042C9.09091 6.49 9.42091 5.716 9.42091 4.72C9.42091 3.7 9.09091 2.92 8.43091 2.38C7.77091 1.828 6.81691 1.552 5.56891 1.552H2.22091V7.87H5.56891ZM22.2667 3.532V13H21.0427V11.128C20.6587 11.764 20.1487 12.25 19.5127 12.586C18.8887 12.922 18.1807 13.09 17.3887 13.09C16.5007 13.09 15.6967 12.886 14.9767 12.478C14.2567 12.07 13.6927 11.5 13.2847 10.768C12.8767 10.036 12.6727 9.202 12.6727 8.266C12.6727 7.33 12.8767 6.496 13.2847 5.764C13.6927 5.032 14.2567 4.468 14.9767 4.072C15.6967 3.664 16.5007 3.46 17.3887 3.46C18.1567 3.46 18.8467 3.622 19.4587 3.946C20.0827 4.258 20.5927 4.72 20.9887 5.332V3.532H22.2667ZM17.4967 11.956C18.1567 11.956 18.7507 11.806 19.2787 11.506C19.8187 11.194 20.2387 10.756 20.5387 10.192C20.8507 9.628 21.0067 8.986 21.0067 8.266C21.0067 7.546 20.8507 6.904 20.5387 6.34C20.2387 5.776 19.8187 5.344 19.2787 5.044C18.7507 4.732 18.1567 4.576 17.4967 4.576C16.8247 4.576 16.2187 4.732 15.6787 5.044C15.1507 5.344 14.7307 5.776 14.4187 6.34C14.1187 6.904 13.9687 7.546 13.9687 8.266C13.9687 8.986 14.1187 9.628 14.4187 10.192C14.7307 10.756 15.1507 11.194 15.6787 11.506C16.2187 11.806 16.8247 11.956 17.4967 11.956ZM30.4879 12.424C30.2479 12.64 29.9539 12.808 29.6059 12.928C29.2579 13.036 28.8919 13.09 28.5079 13.09C27.6199 13.09 26.9359 12.85 26.4559 12.37C25.9759 11.89 25.7359 11.212 25.7359 10.336V1.462H27.0139V3.532H29.8759V4.612H27.0139V10.264C27.0139 10.828 27.1519 11.26 27.4279 11.56C27.7039 11.848 28.1059 11.992 28.6339 11.992C29.2099 11.992 29.6779 11.83 30.0379 11.506L30.4879 12.424ZM36.5205 11.956C37.1085 11.956 37.6485 11.854 38.1405 11.65C38.6445 11.434 39.0705 11.122 39.4185 10.714L40.1385 11.542C39.7185 12.046 39.1965 12.43 38.5725 12.694C37.9485 12.958 37.2585 13.09 36.5025 13.09C35.5305 13.09 34.6665 12.886 33.9105 12.478C33.1545 12.058 32.5665 11.482 32.1465 10.75C31.7265 10.018 31.5165 9.19 31.5165 8.266C31.5165 7.342 31.7145 6.514 32.1105 5.782C32.5185 5.05 33.0765 4.48 33.7845 4.072C34.4925 3.664 35.2965 3.46 36.1965 3.46C37.0365 3.46 37.7925 3.652 38.4645 4.036C39.1485 4.42 39.6885 4.954 40.0845 5.638C40.4925 6.322 40.7085 7.102 40.7325 7.978L32.9565 9.49C33.1965 10.258 33.6285 10.864 34.2525 11.308C34.8885 11.74 35.6445 11.956 36.5205 11.956ZM36.1965 4.558C35.5365 4.558 34.9425 4.714 34.4145 5.026C33.8985 5.326 33.4905 5.752 33.1905 6.304C32.9025 6.844 32.7585 7.468 32.7585 8.176C32.7585 8.356 32.7645 8.488 32.7765 8.572L39.4545 7.276C39.3105 6.484 38.9445 5.836 38.3565 5.332C37.7685 4.816 37.0485 4.558 36.1965 4.558ZM49.1001 13L46.0941 9.04L43.0701 13H41.6301L45.3741 8.14L41.8101 3.532H43.2501L46.0941 7.24L48.9381 3.532H50.3421L46.7781 8.14L50.5581 13H49.1001ZM60.2763 1.552V11.848H62.8323V13H56.4063V11.848H58.9623V1.552H56.4063V0.399999H62.8323V1.552H60.2763ZM65.6819 0.399999H67.0139V11.848H74.0699V13H65.6819V0.399999ZM79.6149 13.108C78.6789 13.108 77.7789 12.958 76.9149 12.658C76.0629 12.358 75.4029 11.962 74.9349 11.47L75.4569 10.444C75.9129 10.9 76.5189 11.272 77.2749 11.56C78.0309 11.836 78.8109 11.974 79.6149 11.974C80.7429 11.974 81.5889 11.77 82.1529 11.362C82.7169 10.942 82.9989 10.402 82.9989 9.742C82.9989 9.238 82.8429 8.836 82.5309 8.536C82.2309 8.236 81.8589 8.008 81.4149 7.852C80.9709 7.684 80.3529 7.504 79.5609 7.312C78.6129 7.072 77.8569 6.844 77.2929 6.628C76.7289 6.4 76.2429 6.058 75.8349 5.602C75.4389 5.146 75.2409 4.528 75.2409 3.748C75.2409 3.112 75.4089 2.536 75.7449 2.02C76.0809 1.492 76.5969 1.072 77.2929 0.76C77.9889 0.448 78.8529 0.291999 79.8849 0.291999C80.6049 0.291999 81.3069 0.394 81.9909 0.598C82.6869 0.789999 83.2869 1.06 83.7909 1.408L83.3409 2.47C82.8129 2.122 82.2489 1.864 81.6489 1.696C81.0489 1.516 80.4609 1.426 79.8849 1.426C78.7809 1.426 77.9469 1.642 77.3829 2.074C76.8309 2.494 76.5549 3.04 76.5549 3.712C76.5549 4.216 76.7049 4.624 77.0049 4.936C77.3169 5.236 77.7009 5.47 78.1569 5.638C78.6249 5.794 79.2489 5.968 80.0289 6.16C80.9529 6.388 81.6969 6.616 82.2609 6.844C82.8369 7.06 83.3229 7.396 83.7189 7.852C84.1149 8.296 84.3129 8.902 84.3129 9.67C84.3129 10.306 84.1389 10.888 83.7909 11.416C83.4549 11.932 82.9329 12.346 82.2249 12.658C81.5169 12.958 80.6469 13.108 79.6149 13.108Z" fill="black"/>
</svg>
